<?xml version="1.0" encoding="UTF-8"?>
<svg width="30px" height="22px" viewBox="0 0 30 22" version="1.1" xmlns="http://www.w3.org/2000/svg" xmlns:xlink="http://www.w3.org/1999/xlink">
    <title>menu</title>
    <defs>
        <filter id="filter-1">
            <feColorMatrix in="SourceGraphic" type="matrix" values="0 0 0 0 1.000000 0 0 0 0 1.000000 0 0 0 0 1.000000 0 0 0 1.000000 0"></feColorMatrix>
        </filter>
    </defs>
    <g id="Page-1" stroke="none" stroke-width="1" fill="none" fill-rule="evenodd">
        <g id="menu" transform="translate(-13.000000, -16.000000)" filter="url(#filter-1)">
            <g transform="translate(13.000000, 16.000000)">
                <path d="M28.75,12.3262411 L1.25,12.3262411 C0.559997578,12.3262411 0,11.7670379 0,11.0780142 C0,10.3889905 0.559997578,9.82978723 1.25,9.82978723 L28.75,9.82978723 C29.4400024,9.82978723 30,10.3889905 30,11.0780142 C30,11.7670379 29.4400024,12.3262411 28.75,12.3262411 Z" id="Path" fill="#000000" fill-rule="nonzero"></path>
                <path d="M28.75,2.4964539 L1.25,2.4964539 C0.559997578,2.4964539 0,1.93725065 0,1.24822695 C0,0.559203255 0.559997578,0 1.25,0 L28.75,0 C29.4400024,0 30,0.559203255 30,1.24822695 C30,1.93725065 29.4400024,2.4964539 28.75,2.4964539 Z" id="Path" fill="#000000" fill-rule="nonzero"></path>
                <path d="M28.75,22 L1.25,22 C0.559997578,22 0,21.4407967 0,20.751773 C0,20.0627494 0.559997578,19.5035461 1.25,19.5035461 L28.75,19.5035461 C29.4400024,19.5035461 30,20.0627494 30,20.751773 C30,21.4407967 29.4400024,22 28.75,22 Z" id="Path" fill="#000000" fill-rule="nonzero"></path>
            </g>
        </g>
    </g>
</svg>