<?xml version="1.0" encoding="UTF-8"?>
<svg width="16px" height="16px" viewBox="0 0 16 16" version="1.1" xmlns="http://www.w3.org/2000/svg" xmlns:xlink="http://www.w3.org/1999/xlink">
    <title>add</title>
    <defs>
        <filter id="filter-1">
            <feColorMatrix in="SourceGraphic" type="matrix" values="0 0 0 0 1.000000 0 0 0 0 1.000000 0 0 0 0 1.000000 0 0 0 1.000000 0"></feColorMatrix>
        </filter>
    </defs>
    <g id="Page-1" stroke="none" stroke-width="1" fill="none" fill-rule="evenodd">
        <g id="add" transform="translate(-106.000000, -134.000000)" filter="url(#filter-1)">
            <g transform="translate(106.000000, 134.000000)">
                <path d="M8,0 C3.58853125,0 0,3.58853125 0,8 C0,12.4114688 3.58853125,16 8,16 C12.4114688,16 16,12.4108437 16,8 C16,3.58915625 12.4114687,0 8,0 Z M8,14.7606562 C4.27265625,14.7606562 1.23934375,11.7279687 1.23934375,8 C1.23934375,4.27203125 4.27265625,1.23934375 8,1.23934375 C11.7273437,1.23934375 14.7606562,4.27203125 14.7606562,8 C14.7606562,11.7279687 11.7279687,14.7606562 8,14.7606562 Z" id="Shape" fill="#000000" fill-rule="nonzero"></path>
                <path d="M11.1578841,7.36841044 L8.63158956,7.36841044 L8.63158956,4.84211588 C8.63158956,4.49348354 8.34926935,4.21052632 8,4.21052632 C7.65073065,4.21052632 7.36841044,4.49348354 7.36841044,4.84211588 L7.36841044,7.36841044 L4.84211588,7.36841044 C4.49284653,7.36841044 4.21052632,7.65136766 4.21052632,8 C4.21052632,8.34863234 4.49284653,8.63158956 4.84211588,8.63158956 L7.36841044,8.63158956 L7.36841044,11.1578841 C7.36841044,11.5065165 7.65073065,11.7894737 8,11.7894737 C8.34926935,11.7894737 8.63158956,11.5065165 8.63158956,11.1578841 L8.63158956,8.63158956 L11.1578841,8.63158956 C11.5071535,8.63158956 11.7894737,8.34863234 11.7894737,8 C11.7894737,7.65136766 11.5071535,7.36841044 11.1578841,7.36841044 Z" id="Path" fill="#000000" fill-rule="nonzero"></path>
            </g>
        </g>
    </g>
</svg>